<?xml version="1.0" encoding="UTF-8" standalone="no"?>
<svg
   id="Layer_1"
   width="283.84"
   height="28"
   viewBox="0 0 283.83999 28"
   version="1.1"
   xmlns="http://www.w3.org/2000/svg"
   xmlns:svg="http://www.w3.org/2000/svg">
  <defs
     id="defs1">
    <style
       id="style1">.cls-1{fill:#20656c;}.cls-1,.cls-2{stroke-width:0px;}.cls-2{fill:#eb743b;}</style>
  </defs>
  <polygon
     class="cls-1"
     points="2,22 14,29 14,1 2,8 "
     id="polygon1"
     transform="translate(-2,-1)" />
  <polygon
     class="cls-2"
     points="27,22 15,29 15,1 27,8 "
     id="polygon2"
     transform="translate(-2,-1)" />
  <path
     class="cls-1"
     d="m 47.81,16.35 h -8.62 v 5.43 h 10.18 v 4.21 H 33.72 V 3.28 H 49.41 V 7.51 H 39.2 v 4.79 h 8.62 v 4.06 z"
     id="path2" />
  <path
     class="cls-1"
     d="M 57.69,19.74 60.36,9.11 H 65.9 L 60.39,26 H 55.02 L 49.51,9.11 h 5.56 z"
     id="path3" />
  <path
     class="cls-1"
     d="m 75.44,26.31 c -2.59,0 -4.69,-0.77 -6.29,-2.32 -1.6,-1.54 -2.4,-3.56 -2.4,-6.03 v -0.44 c 0,-1.73 0.32,-3.25 0.96,-4.57 0.64,-1.32 1.57,-2.34 2.8,-3.07 1.23,-0.72 2.68,-1.08 4.37,-1.08 2.37,0 4.25,0.74 5.62,2.21 1.37,1.47 2.06,3.52 2.06,6.16 v 2.04 H 72.1 c 0.19,0.95 0.6,1.69 1.23,2.23 0.63,0.54 1.46,0.81 2.47,0.81 1.67,0 2.97,-0.58 3.9,-1.75 l 2.4,2.84 c -0.66,0.91 -1.58,1.63 -2.79,2.16 -1.2,0.54 -2.49,0.8 -3.88,0.8 z m -0.6,-13.45 c -1.54,0 -2.46,1.02 -2.75,3.06 h 5.31 v -0.41 c 0.02,-0.84 -0.19,-1.5 -0.64,-1.96 -0.45,-0.46 -1.09,-0.7 -1.92,-0.7 z"
     id="path4" />
  <path
     class="cls-1"
     d="m 89.5,9.11 0.17,1.98 c 1.17,-1.53 2.77,-2.29 4.82,-2.29 1.76,0 3.07,0.53 3.94,1.58 0.87,1.05 1.32,2.63 1.35,4.75 V 26.01 H 94.5 V 15.35 c 0,-0.85 -0.17,-1.48 -0.52,-1.88 -0.34,-0.4 -0.97,-0.6 -1.87,-0.6 -1.03,0 -1.79,0.41 -2.29,1.22 V 26.01 H 84.56 V 9.11 h 4.93 z"
     id="path5" />
  <path
     class="cls-1"
     d="m 108.82,4.92 v 4.2 h 2.78 v 3.65 h -2.78 v 7.73 c 0,0.63 0.11,1.08 0.34,1.33 0.23,0.25 0.68,0.37 1.36,0.37 0.52,0 0.96,-0.03 1.31,-0.09 v 3.76 c -0.95,0.3 -1.94,0.45 -2.97,0.45 -1.81,0 -3.15,-0.43 -4.01,-1.28 -0.86,-0.85 -1.3,-2.15 -1.3,-3.89 V 12.77 H 101.4 V 9.12 h 2.15 v -4.2 h 5.26 z"
     id="path6" />
  <path
     class="cls-1"
     d="m 134.77,21.75 h -7.51 L 125.95,26 h -5.85 l 8.33,-22.72 h 5.15 l 8.4,22.72 h -5.88 z m -6.19,-4.22 h 4.88 l -2.45,-7.88 z"
     id="path7" />
  <path
     class="cls-1"
     d="m 153.61,13.87 -1.73,-0.12 c -1.65,0 -2.71,0.52 -3.18,1.56 V 26 h -5.26 V 9.11 h 4.93 l 0.17,2.17 c 0.88,-1.65 2.12,-2.48 3.7,-2.48 0.56,0 1.05,0.06 1.47,0.19 l -0.09,4.88 z"
     id="path8" />
  <path
     class="cls-1"
     d="m 162.41,4.92 v 4.2 h 2.78 v 3.65 h -2.78 v 7.73 c 0,0.63 0.11,1.08 0.34,1.33 0.23,0.25 0.68,0.37 1.36,0.37 0.52,0 0.96,-0.03 1.31,-0.09 v 3.76 c -0.95,0.3 -1.94,0.45 -2.97,0.45 -1.81,0 -3.15,-0.43 -4.01,-1.28 -0.86,-0.85 -1.3,-2.15 -1.3,-3.89 v -8.38 h -2.15 V 9.12 h 2.15 v -4.2 h 5.26 z"
     id="path9" />
  <path
     class="cls-2"
     d="m 188.37,21.75 h -7.51 L 179.55,26 h -5.85 l 8.33,-22.72 h 5.15 l 8.4,22.72 h -5.88 z m -6.2,-4.22 h 4.88 L 184.6,9.65 Z"
     id="path10" />
  <path
     class="cls-2"
     d="m 207.21,13.87 -1.73,-0.12 c -1.65,0 -2.71,0.52 -3.18,1.56 V 26 h -5.26 V 9.11 h 4.93 l 0.17,2.17 c 0.88,-1.65 2.12,-2.48 3.7,-2.48 0.56,0 1.05,0.06 1.47,0.19 l -0.09,4.88 z"
     id="path11" />
  <path
     class="cls-2"
     d="m 215.95,22.25 c 0.74,0 1.31,-0.2 1.72,-0.6 0.41,-0.4 0.6,-0.96 0.59,-1.68 h 4.93 c 0,1.85 -0.66,3.37 -1.99,4.56 -1.33,1.19 -3.04,1.78 -5.13,1.78 -2.46,0 -4.39,-0.77 -5.81,-2.31 -1.42,-1.54 -2.12,-3.67 -2.12,-6.4 v -0.22 c 0,-1.71 0.31,-3.21 0.94,-4.52 0.63,-1.31 1.54,-2.31 2.72,-3.01 1.19,-0.7 2.59,-1.05 4.21,-1.05 2.2,0 3.94,0.61 5.23,1.83 1.29,1.22 1.93,2.87 1.93,4.95 h -4.93 c 0,-0.87 -0.21,-1.54 -0.64,-2.01 -0.43,-0.47 -1,-0.7 -1.72,-0.7 -1.36,0 -2.16,0.87 -2.39,2.61 -0.07,0.55 -0.11,1.31 -0.11,2.28 0,1.7 0.2,2.87 0.61,3.53 0.41,0.66 1.05,0.98 1.94,0.98 z"
     id="path12" />
  <path
     class="cls-2"
     d="m 230.55,10.92 c 1.12,-1.42 2.56,-2.12 4.31,-2.12 1.86,0 3.27,0.55 4.21,1.65 0.95,1.1 1.43,2.73 1.45,4.88 v 10.66 h -5.28 V 15.45 c 0,-0.89 -0.18,-1.55 -0.55,-1.97 -0.36,-0.42 -0.98,-0.63 -1.86,-0.63 -1.08,0 -1.85,0.34 -2.29,1.03 v 12.11 h -5.26 V 2.03 h 5.26 v 8.9 z"
     id="path13" />
  <path
     class="cls-2"
     d="m 243.41,4.76 c 0,-0.75 0.27,-1.36 0.81,-1.84 0.54,-0.48 1.24,-0.72 2.11,-0.72 0.87,0 1.57,0.24 2.11,0.72 0.54,0.48 0.81,1.09 0.81,1.84 0,0.75 -0.27,1.36 -0.81,1.84 -0.54,0.48 -1.24,0.72 -2.11,0.72 -0.87,0 -1.57,-0.24 -2.11,-0.72 -0.54,-0.48 -0.81,-1.09 -0.81,-1.84 z M 249,26 h -5.28 V 9.11 H 249 Z"
     id="path14" />
  <path
     class="cls-2"
     d="m 258.97,19.74 2.67,-10.63 h 5.54 L 261.67,26 H 256.3 L 250.79,9.11 h 5.56 z"
     id="path15" />
  <path
     class="cls-2"
     d="m 276.72,26.31 c -2.59,0 -4.69,-0.77 -6.29,-2.32 -1.6,-1.54 -2.4,-3.56 -2.4,-6.03 v -0.44 c 0,-1.73 0.32,-3.25 0.96,-4.57 0.64,-1.32 1.57,-2.34 2.8,-3.07 1.23,-0.72 2.68,-1.08 4.37,-1.08 2.37,0 4.25,0.74 5.62,2.21 1.37,1.47 2.06,3.52 2.06,6.16 v 2.04 h -10.46 c 0.19,0.95 0.6,1.69 1.23,2.23 0.63,0.54 1.46,0.81 2.47,0.81 1.67,0 2.97,-0.58 3.9,-1.75 l 2.4,2.84 c -0.66,0.91 -1.58,1.63 -2.79,2.16 -1.2,0.54 -2.49,0.8 -3.88,0.8 z m -0.59,-13.45 c -1.54,0 -2.46,1.02 -2.75,3.06 h 5.31 v -0.41 c 0.02,-0.84 -0.19,-1.5 -0.64,-1.96 -0.45,-0.46 -1.09,-0.7 -1.92,-0.7 z"
     id="path16" />
</svg>
