<svg xmlns="http://www.w3.org/2000/svg" viewBox="0 0 254.59 28"><title>CoverArtArchive_logo_mini</title><polygon points="12 0 0 7 0 21 12 28 12 0" style="fill:#20656c"/><polygon points="13 0 25 7 25 21 13 28 13 0" style="fill:#eb743b"/><path d="M49.8,18.26a7.46,7.46,0,0,1-.67,2.85,6.56,6.56,0,0,1-1.67,2.21,7.67,7.67,0,0,1-2.56,1.44,10.21,10.21,0,0,1-3.34.51A9,9,0,0,1,38,24.6a7.22,7.22,0,0,1-2.65-1.92,8.46,8.46,0,0,1-1.65-3,13.4,13.4,0,0,1-.57-4V14.51a12.82,12.82,0,0,1,.59-4,8.76,8.76,0,0,1,1.7-3.06,7.43,7.43,0,0,1,2.65-1.93,8.5,8.5,0,0,1,3.45-.68A10.1,10.1,0,0,1,45,5.35a7.4,7.4,0,0,1,2.54,1.5,6.86,6.86,0,0,1,1.63,2.27A8.84,8.84,0,0,1,49.84,12H45.06a5.68,5.68,0,0,0-.23-1.48,2.53,2.53,0,0,0-.62-1.07,2.71,2.71,0,0,0-1.08-.64,5.16,5.16,0,0,0-1.61-.22A3.41,3.41,0,0,0,40,8.89a2.71,2.71,0,0,0-1.09,1,5.41,5.41,0,0,0-.65,1.84A14.91,14.91,0,0,0,38,14.49v1.11a16.33,16.33,0,0,0,.19,2.71,5.51,5.51,0,0,0,.61,1.84,2.54,2.54,0,0,0,1.09,1,3.79,3.79,0,0,0,1.66.33,3.68,3.68,0,0,0,2.53-.78A3.31,3.31,0,0,0,45,18.26Z" transform="translate(-2 -1)" style="fill:#20656c"/><path d="M51.28,17.47a9.34,9.34,0,0,1,.46-3,6.81,6.81,0,0,1,1.37-2.39,6.19,6.19,0,0,1,2.24-1.58,8.59,8.59,0,0,1,6.14,0,6.19,6.19,0,0,1,2.24,1.58,6.81,6.81,0,0,1,1.37,2.39,9.34,9.34,0,0,1,.46,3v.29a9.43,9.43,0,0,1-.46,3,6.67,6.67,0,0,1-1.36,2.38,6.24,6.24,0,0,1-2.24,1.57,8.59,8.59,0,0,1-6.14,0,6.31,6.31,0,0,1-2.24-1.57,6.69,6.69,0,0,1-1.37-2.38,9.32,9.32,0,0,1-.46-3Zm4.61.29A9.9,9.9,0,0,0,56,19.31a3.84,3.84,0,0,0,.41,1.26,2.26,2.26,0,0,0,.79.84,2.28,2.28,0,0,0,1.23.31,2.09,2.09,0,0,0,2-1.15,4.08,4.08,0,0,0,.41-1.26,9.32,9.32,0,0,0,.12-1.56v-.29a9.71,9.71,0,0,0-.12-1.53,3.91,3.91,0,0,0-.41-1.26,2.35,2.35,0,0,0-.79-.86,2.21,2.21,0,0,0-1.23-.32,2.15,2.15,0,0,0-1.21.32,2.31,2.31,0,0,0-.77.86A4.17,4.17,0,0,0,56,15.94a9.14,9.14,0,0,0-.12,1.53Z" transform="translate(-2 -1)" style="fill:#20656c"/><path d="M73.27,19.52l2.34-9.31h4.85L75.64,25h-4.7L66.11,10.21H71Z" transform="translate(-2 -1)" style="fill:#20656c"/><path d="M88.82,25.27a8.56,8.56,0,0,1-3.23-.57,7,7,0,0,1-2.39-1.56,6.74,6.74,0,0,1-1.48-2.28,7.45,7.45,0,0,1-.51-2.76v-.52a9.93,9.93,0,0,1,.44-3A6.73,6.73,0,0,1,83,12.13a6.26,6.26,0,0,1,2.23-1.61,7.66,7.66,0,0,1,3.11-.59,7.48,7.48,0,0,1,2.82.51,5.78,5.78,0,0,1,2.12,1.45,6.36,6.36,0,0,1,1.33,2.28,9.25,9.25,0,0,1,.46,3v1.87H85.89A3.32,3.32,0,0,0,87,21a3.22,3.22,0,0,0,2.16.71A5,5,0,0,0,91,21.36a3.73,3.73,0,0,0,1.57-1.18l2.11,2.49a5.37,5.37,0,0,1-.91,1,6.35,6.35,0,0,1-1.29.83,8.24,8.24,0,0,1-3.64.81ZM88.3,13.49a2.3,2.3,0,0,0-1,.21,2,2,0,0,0-.7.56,2.78,2.78,0,0,0-.44.85,6.1,6.1,0,0,0-.25,1.07h4.65v-.36A2.28,2.28,0,0,0,90,14.1,2.23,2.23,0,0,0,88.3,13.49Z" transform="translate(-2 -1)" style="fill:#20656c"/><path d="M105.85,14.38l-.33,0-.41,0-.42,0h-.36a4.09,4.09,0,0,0-1.79.33,2.06,2.06,0,0,0-1,1V25H96.94V10.21h4.32l.15,1.9a4.51,4.51,0,0,1,1.36-1.6,3.18,3.18,0,0,1,1.88-.57,5.57,5.57,0,0,1,.68,0,3.68,3.68,0,0,1,.61.12Z" transform="translate(-2 -1)" style="fill:#20656c"/><path d="M126,21.28h-6.58L118.28,25h-5.13l7.3-19.91H125L132.32,25h-5.15Zm-5.43-3.71h4.28l-2.15-6.9Z" transform="translate(-2 -1)" style="fill:#20656c"/><path d="M142.51,14.38l-.33,0-.41,0-.42,0H141a4.09,4.09,0,0,0-1.79.33,2.06,2.06,0,0,0-1,1V25h-4.61V10.21h4.32l.15,1.9a4.51,4.51,0,0,1,1.36-1.6,3.18,3.18,0,0,1,1.88-.57,5.57,5.57,0,0,1,.68,0,3.68,3.68,0,0,1,.61.12Z" transform="translate(-2 -1)" style="fill:#20656c"/><path d="M150.22,6.53v3.68h2.43v3.2h-2.43v6.77a2.94,2.94,0,0,0,.08.72,1,1,0,0,0,.25.46.94.94,0,0,0,.46.24,3.11,3.11,0,0,0,.71.07l.66,0,.49-.06v3.29a8.61,8.61,0,0,1-1.23.29,8.51,8.51,0,0,1-1.37.1,7.06,7.06,0,0,1-2-.25,3.62,3.62,0,0,1-1.46-.8,3.45,3.45,0,0,1-.9-1.41,6.16,6.16,0,0,1-.31-2.06V13.41h-1.89v-3.2h1.89V6.53Z" transform="translate(-2 -1)" style="fill:#20656c"/><path d="M173,21.28h-6.58L165.23,25H160.1l7.3-19.91h4.51L179.27,25h-5.15Zm-5.43-3.71h4.28l-2.15-6.9Z" transform="translate(-2 -1)" style="fill:#eb743b"/><path d="M189.46,14.38l-.33,0-.41,0-.42,0h-.36a4.09,4.09,0,0,0-1.79.33,2.06,2.06,0,0,0-1,1V25h-4.61V10.21h4.32l.15,1.9a4.51,4.51,0,0,1,1.36-1.6,3.18,3.18,0,0,1,1.88-.57,5.57,5.57,0,0,1,.68,0,3.68,3.68,0,0,1,.61.12Z" transform="translate(-2 -1)" style="fill:#eb743b"/><path d="M197.11,21.72a2.05,2.05,0,0,0,1.5-.53,1.93,1.93,0,0,0,.52-1.47h4.32A5.35,5.35,0,0,1,203,22a5.22,5.22,0,0,1-1.31,1.75,5.88,5.88,0,0,1-2,1.13,8.13,8.13,0,0,1-5.51-.18A6,6,0,0,1,192,23.12a6.7,6.7,0,0,1-1.31-2.38,9.74,9.74,0,0,1-.44-3v-.31a9.81,9.81,0,0,1,.44-3,6.75,6.75,0,0,1,1.3-2.39,6,6,0,0,1,2.15-1.58,7.37,7.37,0,0,1,3-.57,7.81,7.81,0,0,1,2.55.4,5.57,5.57,0,0,1,2,1.16A5.18,5.18,0,0,1,203,13.35a6.53,6.53,0,0,1,.46,2.52h-4.32a3.62,3.62,0,0,0-.12-.93,2,2,0,0,0-.38-.76,1.83,1.83,0,0,0-.65-.51,2.14,2.14,0,0,0-.92-.18,1.87,1.87,0,0,0-1.14.32,2.07,2.07,0,0,0-.66.86,4.3,4.3,0,0,0-.31,1.26,14.81,14.81,0,0,0-.08,1.52v.31a14.89,14.89,0,0,0,.08,1.54,4.3,4.3,0,0,0,.31,1.26,1.93,1.93,0,0,0,.68.85A2,2,0,0,0,197.11,21.72Z" transform="translate(-2 -1)" style="fill:#eb743b"/><path d="M209.91,11.79a5.08,5.08,0,0,1,1.65-1.37,4.55,4.55,0,0,1,2.13-.49,6.13,6.13,0,0,1,2,.31,3.84,3.84,0,0,1,1.57,1,4.73,4.73,0,0,1,1,1.82,9,9,0,0,1,.36,2.73V25H214V15.79a3.68,3.68,0,0,0-.14-1.11,1.7,1.7,0,0,0-.42-.71,1.47,1.47,0,0,0-.66-.37,3.47,3.47,0,0,0-.88-.1,2.84,2.84,0,0,0-1.25.24,1.86,1.86,0,0,0-.76.66V25H205.3V4h4.61Z" transform="translate(-2 -1)" style="fill:#eb743b"/><path d="M221.18,6.39a2.17,2.17,0,0,1,.18-.9,2.07,2.07,0,0,1,.53-.71,2.44,2.44,0,0,1,.81-.46,3.37,3.37,0,0,1,2.08,0,2.44,2.44,0,0,1,.81.46,2.07,2.07,0,0,1,.53.71,2.3,2.3,0,0,1,0,1.8,2.07,2.07,0,0,1-.53.71,2.44,2.44,0,0,1-.81.46,3.37,3.37,0,0,1-2.08,0,2.44,2.44,0,0,1-.81-.46,2.07,2.07,0,0,1-.53-.71A2.17,2.17,0,0,1,221.18,6.39ZM226.07,25h-4.62V10.21h4.62Z" transform="translate(-2 -1)" style="fill:#eb743b"/><path d="M234.81,19.52l2.34-9.31H242L237.17,25h-4.7l-4.83-14.79h4.87Z" transform="translate(-2 -1)" style="fill:#eb743b"/><path d="M250.35,25.27a8.56,8.56,0,0,1-3.23-.57,7,7,0,0,1-2.39-1.56,6.74,6.74,0,0,1-1.48-2.28,7.45,7.45,0,0,1-.51-2.76v-.52a9.93,9.93,0,0,1,.44-3,6.73,6.73,0,0,1,1.34-2.43,6.26,6.26,0,0,1,2.23-1.61,7.66,7.66,0,0,1,3.11-.59,7.48,7.48,0,0,1,2.82.51,5.78,5.78,0,0,1,2.12,1.45,6.36,6.36,0,0,1,1.33,2.28,9.25,9.25,0,0,1,.46,3v1.87h-9.16a3.32,3.32,0,0,0,1.08,2,3.22,3.22,0,0,0,2.16.71,5,5,0,0,0,1.85-.36,3.73,3.73,0,0,0,1.57-1.18l2.11,2.49a5.37,5.37,0,0,1-.91,1,6.35,6.35,0,0,1-1.29.83,8.24,8.24,0,0,1-3.64.81Zm-.52-11.79a2.3,2.3,0,0,0-1,.21,2,2,0,0,0-.7.56,2.78,2.78,0,0,0-.44.85,6.1,6.1,0,0,0-.25,1.07h4.65v-.36a2.28,2.28,0,0,0-.56-1.72A2.23,2.23,0,0,0,249.83,13.49Z" transform="translate(-2 -1)" style="fill:#eb743b"/></svg>